<svg width="108" height="47" viewBox="0 0 108 47" fill="none" xmlns="http://www.w3.org/2000/svg">
<path d="M42.7178 29.1882C41.3824 29.1946 40.0469 29.1978 38.7082 29.201C38.0709 29.201 37.2639 29.201 36.6266 29.2042C36.9244 29.0793 37.5329 28.7751 38.0197 28.1185C38.7082 27.193 38.6858 26.197 38.6698 25.9024C38.6634 25.5277 38.6602 25.1498 38.6538 24.7751C38.6474 24.1506 38.6378 23.5261 38.6314 22.9048H38.2182C37.5041 22.9048 36.8828 23.0617 36.3576 23.382C36.0309 23.5837 35.8195 23.7919 35.7715 23.8399C35.163 24.4612 35.0029 25.2394 34.9036 25.7166C34.8652 25.9088 34.8428 26.0721 34.8299 26.181C34.7531 26.5397 34.5161 27.3884 33.7667 28.1153C32.6682 29.1818 31.2943 29.1882 31.0061 29.185V32.3875H34.8267V41.0152C34.8267 41.0632 34.8267 41.1017 34.8331 41.1433C34.8556 42.1329 35.163 42.9207 35.7619 43.526C36.3896 44.1537 37.2094 44.4675 38.215 44.4675H42.5289V41.2586H39.5697C39.0285 41.2586 38.7435 40.9864 38.7146 40.4515C38.7082 40.4163 38.7082 40.3811 38.7082 40.3427V32.3907H42.894C42.8363 31.3243 42.7787 30.2546 42.721 29.1882H42.7178Z" fill="#FC004E"/>
<path d="M8.12999 6.30261C9.18683 5.9023 9.59996 5.37388 9.7761 4.95434C10.0131 4.39069 9.92662 3.75659 10.4102 3.40111C10.6248 3.25059 10.865 3.20895 11.0251 3.20255H13.6768V0H9.67042C8.95625 0 8.33496 0.156925 7.80974 0.47718C7.5087 0.656522 7.31014 0.848675 7.22367 0.935144C6.64081 1.52121 6.44545 2.19695 6.36859 2.53962C6.36859 2.80223 6.31735 4.1441 5.21888 5.21375C4.06916 6.33144 2.64403 6.29621 2.40063 6.2834V9.48595H6.28533V21.566H10.17V9.48595H14.1764V6.2834C12.1652 6.2898 10.1476 6.29621 8.1364 6.29941L8.12999 6.30261Z" fill="#FC004E"/>
<path d="M30.0665 15.0835C30.643 15.0963 31.2226 15.1124 31.8023 15.1284C32.3851 15.1444 32.9648 15.1604 33.5413 15.1764C33.5957 14.9971 33.663 14.6864 33.6181 14.3053C33.5477 13.7192 33.253 13.3381 33.1954 13.2677C32.7278 12.6816 32.0681 12.5631 31.8984 12.5375L30.0729 12.4158C30.0729 12.2012 30.0665 11.9899 30.0665 11.7753V11.7337C30.0665 11.2117 30.0153 8.96026 28.3051 7.35578C26.7807 5.92424 24.8624 5.85059 23.5333 5.85059C22.2042 5.85059 21.1026 6.04914 20.1898 6.44946C19.2771 6.84978 18.5437 7.375 18.0025 8.01871C17.4549 8.66883 17.0609 9.37979 16.8176 10.1644L20.3884 11.3622C20.5325 10.664 20.8432 10.094 21.3139 9.65201C21.7911 9.21006 22.5053 8.98908 23.4692 8.98908C24.4332 8.98908 25.1794 9.22287 25.6246 9.68724C26.0793 10.1452 26.3035 10.7409 26.3035 11.455V12.3197H22.1114C20.9617 12.3197 19.9432 12.4991 19.0465 12.8546C18.1498 13.2164 17.4549 13.7513 16.9489 14.459C16.4493 15.1668 16.1995 16.0475 16.1995 17.0915C16.1995 18.1356 16.4493 19.0259 16.9489 19.7593C17.4549 20.4862 18.1338 21.0435 19.0017 21.4214C19.8632 21.7993 20.84 21.9914 21.9256 21.9914C23.0113 21.9914 23.8375 21.8345 24.4556 21.5271C25.0705 21.2196 25.5253 20.8641 25.8103 20.4702C26.1017 20.0699 26.2811 19.7432 26.3676 19.4998H26.9504V19.5287C26.9504 20.1436 27.2002 20.64 27.6902 21.005C28.1834 21.3765 28.8111 21.5623 29.5733 21.5623H32.161V18.3533H30.928C30.6622 18.3533 30.4572 18.2893 30.3131 18.1548C30.0056 17.8697 30.0633 17.463 30.0697 17.4342V15.0803L30.0665 15.0835ZM26.3067 15.5255C26.3067 16.5311 25.964 17.3381 25.2723 17.9434C24.5869 18.5487 23.6966 18.8497 22.611 18.8497C21.7911 18.8497 21.1634 18.6768 20.7343 18.3277C20.2987 17.9786 20.0842 17.5271 20.0842 16.973C20.0842 16.419 20.2923 15.9834 20.699 15.676C21.1122 15.3686 21.6758 15.218 22.3964 15.218H26.3099V15.5255H26.3067Z" fill="#FC004E"/>
<path d="M56.4249 8.45753C55.9605 7.64408 55.3424 7.0388 54.577 6.63848C53.8052 6.23817 52.9501 6.0332 52.0021 6.0332C50.8332 6.0332 49.9269 6.25418 49.2928 6.68332C48.6523 7.11246 48.1591 7.6601 47.81 8.31662H47.2592C46.9101 7.63768 46.4041 7.09004 45.7476 6.66731C45.091 6.24777 44.22 6.0332 43.1311 6.0332C42.1255 6.0332 41.312 6.22536 40.6939 6.60966C40.0791 6.98756 39.6371 7.43592 39.3681 7.94512H38.8173V6.283H34.9934V21.5656H38.8781V12.5376C38.8781 11.4903 39.1215 10.6833 39.6051 10.1197C40.0887 9.55601 40.7676 9.27098 41.6515 9.27098C42.4361 9.27098 43.0414 9.47914 43.4706 9.90508C43.8997 10.3246 44.1143 10.9587 44.1143 11.801V21.5656H47.999V12.5376C47.999 11.4903 48.2424 10.6833 48.7259 10.1197C49.2095 9.55601 49.8885 9.27098 50.7724 9.27098C51.5506 9.27098 52.1623 9.47914 52.5914 9.90508C53.0205 10.3246 53.2351 10.9587 53.2351 11.801V21.5656H57.1198V11.5192C57.1198 10.2862 56.886 9.26457 56.4281 8.45433L56.4249 8.45753Z" fill="#FC004E"/>
<path d="M76.2994 13.9338C76.2417 13.1076 76.1264 12.4062 75.9503 11.8233L72.5332 12.8866C72.7478 13.4855 72.847 14.1292 72.8182 14.8273C72.7894 15.5255 72.3891 16.2589 71.6141 17.0243C70.8647 17.7801 69.9936 18.1868 69.004 18.2445C68.0144 18.3021 67.1369 17.9754 66.3651 17.2677L74.2305 9.40222L73.2954 8.46708C72.1905 7.3622 71.0056 6.6064 69.731 6.21249C68.4628 5.81217 67.1977 5.76413 65.9423 6.07798C64.6869 6.39183 63.5308 7.07717 62.4708 8.13722C61.3947 9.21327 60.6742 10.3854 60.3187 11.66C59.9632 12.9282 59.9824 14.206 60.3667 15.4903C60.751 16.7745 61.5132 17.9851 62.6405 19.1188L62.9031 19.3814C64.0368 20.5151 65.2506 21.2709 66.5412 21.6488C67.8383 22.0267 69.1225 22.0331 70.4003 21.6712C71.6749 21.3061 72.8534 20.5855 73.9295 19.5159C74.9191 18.5263 75.5756 17.5559 75.8991 16.6048C76.2257 15.6568 76.357 14.7665 76.2994 13.937V13.9338ZM63.6461 12.8866C63.7038 12.0731 64.1041 11.2981 64.8439 10.5551C65.5516 9.84738 66.3202 9.45667 67.1401 9.39262C67.9664 9.32856 68.7158 9.57836 69.3947 10.142L64.3443 15.1988C63.8223 14.4719 63.5885 13.7 63.6461 12.8866Z" fill="#FC004E"/>
<path d="M60.6397 32.3619C59.9415 31.1866 58.9904 30.2995 57.7734 29.6814C56.5629 29.0665 55.1986 28.7559 53.6742 28.7559C52.1497 28.7559 50.7919 29.0633 49.5749 29.6814C48.3643 30.2963 47.4132 31.1866 46.715 32.3619C46.0105 33.5309 45.6614 34.9368 45.6614 36.5829V37.0761C45.6614 38.7158 46.0105 40.1217 46.715 41.297C47.4132 42.466 48.3643 43.3595 49.5749 43.9776C50.7887 44.5925 52.1561 44.9031 53.6742 44.9031C55.1922 44.9031 56.5629 44.5957 57.7734 43.9776C58.9872 43.3627 59.9415 42.466 60.6397 41.297C61.3379 40.1217 61.6869 38.7158 61.6869 37.0761V36.5829C61.6869 34.9368 61.3379 33.5309 60.6397 32.3619ZM60.6621 36.759C56.3259 38.2226 55.1409 39.4075 53.6774 43.7438C52.2138 39.4075 51.0288 38.2226 46.6926 36.759C51.0288 35.2955 52.2138 34.1105 53.6774 29.7743C55.1409 34.1105 56.3259 35.2955 60.6621 36.759Z" fill="#FC004E"/>
<path d="M79.3127 32.0065C78.8195 31.0522 78.1277 30.3028 77.231 29.7583C76.3343 29.2107 75.2967 28.9385 74.1021 28.9385C72.725 28.9385 71.7002 29.1819 71.0213 29.6655C70.3455 30.149 69.8812 30.6582 69.6378 31.1899H69.0805V29.1915H65.2599V44.474H69.1446V36.7079C69.1446 35.2891 69.4712 34.1842 70.1278 33.3932C70.7907 32.6022 71.7162 32.2083 72.9012 32.2083C73.9548 32.2083 74.7554 32.4997 75.3255 33.073C75.8891 33.6494 76.1678 34.5077 76.1678 35.6606V44.474H80.0525V35.3532C80.0525 34.0786 79.8091 32.9641 79.3127 32.0097V32.0065Z" fill="#FC004E"/>
<path d="M84.2416 29.1875V44.4701H88.1263V29.1875H84.2416Z" fill="#FC004E"/>
<path d="M103.281 34.9078C103.86 35.7244 104.152 36.5603 104.152 37.4153C104.152 38.2704 103.735 39.1127 102.906 39.9422C102.355 40.493 101.737 40.8709 101.055 41.0759C100.376 41.2776 99.6681 41.268 98.9412 41.0502C98.2142 40.8325 97.5096 40.3841 96.8275 39.702L96.6097 39.4842C95.9276 38.8021 95.476 38.0943 95.2582 37.3673C95.0437 36.6435 95.0373 35.9358 95.239 35.26C95.4408 34.5747 95.8187 33.9566 96.3695 33.4058C96.9236 32.8517 97.4872 32.493 98.0637 32.3297C98.6337 32.16 99.1974 32.1504 99.7482 32.2977C100.302 32.4418 100.824 32.7012 101.317 33.0791L103.406 29.8573C102.464 29.204 101.449 28.7877 100.357 28.6147C99.271 28.4418 98.1726 28.5443 97.0677 28.919C95.966 29.2969 94.8963 30.0047 93.8651 31.0359C92.8211 32.0799 92.0941 33.2424 91.6778 34.5299C91.2615 35.8173 91.223 37.1143 91.5593 38.4402C91.8892 39.7628 92.645 41.0118 93.8203 42.1903L94.1245 42.4946C95.3031 43.6731 96.5489 44.4257 97.8779 44.7588C99.1974 45.0919 100.501 45.0534 101.788 44.6403C103.076 44.2272 104.238 43.497 105.282 42.453C106.326 41.4089 107.021 40.3521 107.396 39.2472C107.774 38.1455 107.876 37.0471 107.7 35.9582C107.53 34.8693 107.149 33.8445 106.57 32.8869L103.281 34.9078Z" fill="#FC004E"/>
<path d="M89.0552 24.9513C87.2714 25.5534 86.7846 26.0402 86.1825 27.824C85.5804 26.0402 85.0936 25.5534 83.3098 24.9513C85.0936 24.3492 85.5804 23.8624 86.1825 22.0786C86.7846 23.8624 87.2714 24.3492 89.0552 24.9513Z" fill="#FC004E"/>
<path d="M40.3172 30.2771C38.9817 30.2835 37.6463 30.2867 36.3076 30.2899C35.6703 30.2899 34.8632 30.2899 34.2259 30.2931C34.5238 30.1682 35.1323 29.8639 35.619 29.2074C36.3076 28.2819 36.2852 27.2859 36.2692 26.9912C36.2628 26.6165 36.2596 26.2386 36.2532 25.8639C36.2467 25.2394 36.2371 24.6149 36.2307 23.9937H35.8176C35.1034 23.9937 34.4821 24.1506 33.9569 24.4708C33.6303 24.6726 33.4189 24.8808 33.3709 24.9288C32.7624 25.5501 32.6022 26.3283 32.503 26.8055C32.4645 26.9976 32.4421 27.161 32.4293 27.2699C32.3524 27.6285 32.1155 28.4772 31.3661 29.2042C30.2676 30.2706 28.8937 30.2771 28.6055 30.2738V33.4764H32.4261V42.1041C32.4261 42.1521 32.4261 42.1905 32.4325 42.2322C32.4549 43.2218 32.7624 44.0096 33.3613 44.6149C33.989 45.2426 34.8088 45.5564 35.8144 45.5564H40.1282V42.3475H37.1691C36.6279 42.3475 36.3428 42.0752 36.314 41.5404C36.3076 41.5052 36.3076 41.47 36.3076 41.4315V33.4796H40.4933C40.4357 32.4132 40.378 31.3435 40.3204 30.2771H40.3172Z" fill="#00E7F9"/>
<path d="M5.72936 7.39197C6.7862 6.99165 7.19933 6.46323 7.37547 6.0437C7.61246 5.48005 7.52599 4.84594 8.00957 4.49046C8.22414 4.33994 8.46434 4.29831 8.62446 4.2919H11.2762V1.08936H7.26978C6.55562 1.08936 5.93432 1.24628 5.4091 1.56654C5.10806 1.74588 4.90951 1.93803 4.82304 2.0245C4.24017 2.61057 4.04482 3.2863 3.96796 3.62898C3.96796 3.89158 3.91672 5.23345 2.81824 6.3031C1.66853 7.42079 0.243394 7.38557 0 7.37276V10.5753H3.88469V22.6553H7.76938V10.5753H11.7758V7.37276C9.76457 7.37916 7.74696 7.38556 5.73576 7.38877L5.72936 7.39197Z" fill="#00E7F9"/>
<path d="M27.6659 16.1729C28.2423 16.1857 28.822 16.2017 29.4016 16.2177C29.9845 16.2337 30.5642 16.2497 31.1406 16.2658C31.1951 16.0864 31.2623 15.7758 31.2175 15.3947C31.147 14.8086 30.8524 14.4275 30.7947 14.357C30.3272 13.771 29.6675 13.6525 29.4977 13.6269L27.6723 13.5052C27.6723 13.2906 27.6659 13.0792 27.6659 12.8647V12.823C27.6659 12.301 27.6146 10.0496 25.9045 8.44514C24.38 7.0136 22.4617 6.93994 21.1327 6.93994C19.8036 6.93994 18.7019 7.1385 17.7892 7.53882C16.8765 7.93914 16.1431 8.46435 15.6019 9.10807C15.0542 9.75818 14.6603 10.4691 14.4169 11.2538L17.9878 12.4515C18.1319 11.7534 18.4425 11.1833 18.9133 10.7414C19.3905 10.2994 20.1046 10.0784 21.0686 10.0784C22.0326 10.0784 22.7788 10.3122 23.2239 10.7766C23.6787 11.2346 23.9029 11.8302 23.9029 12.5444V13.4091H19.7107C18.561 13.4091 17.5426 13.5884 16.6459 13.9439C15.7492 14.3058 15.0542 14.8406 14.5482 15.5484C14.0486 16.2562 13.7988 17.1369 13.7988 18.1809C13.7988 19.2249 14.0486 20.1152 14.5482 20.8486C15.0542 21.5756 15.7332 22.1328 16.6011 22.5107C17.4625 22.8886 18.4393 23.0808 19.525 23.0808C20.6106 23.0808 21.4369 22.9239 22.055 22.6164C22.6699 22.309 23.1246 21.9535 23.4097 21.5596C23.7011 21.1593 23.8804 20.8326 23.9669 20.5892H24.5498V20.618C24.5498 21.2329 24.7996 21.7293 25.2896 22.0944C25.7828 22.4659 26.4105 22.6516 27.1727 22.6516H29.7603V19.4427H28.5273C28.2615 19.4427 28.0566 19.3786 27.9125 19.2441C27.605 18.9591 27.6627 18.5524 27.6691 18.5236V16.1697L27.6659 16.1729ZM23.9061 16.6148C23.9061 17.6204 23.5634 18.4275 22.8716 19.0328C22.1863 19.638 21.296 19.9391 20.2103 19.9391C19.3905 19.9391 18.7628 19.7661 18.3336 19.4171C17.8981 19.068 17.6835 18.6164 17.6835 18.0624C17.6835 17.5084 17.8917 17.0728 18.2984 16.7654C18.7115 16.4579 19.2752 16.3074 19.9958 16.3074H23.9093V16.6148H23.9061Z" fill="#00E7F9"/>
<path d="M54.0242 9.54689C53.5599 8.73344 52.9418 8.12816 52.1764 7.72784C51.4045 7.32752 50.5495 7.12256 49.6015 7.12256C48.4326 7.12256 47.5263 7.34353 46.8921 7.77268C46.2516 8.20182 45.7584 8.74945 45.4094 9.40598H44.8585C44.5095 8.72704 44.0035 8.1794 43.3469 7.75666C42.6904 7.33713 41.8193 7.12256 40.7304 7.12256C39.7248 7.12256 38.9114 7.31471 38.2933 7.69902C37.6784 8.07692 37.2365 8.52527 36.9675 9.03448H36.4166V7.37236H32.5928V22.6549H36.4775V13.6269C36.4775 12.5797 36.7209 11.7727 37.2044 11.209C37.688 10.6454 38.367 10.3603 39.2509 10.3603C40.0355 10.3603 40.6408 10.5685 41.0699 10.9944C41.4991 11.414 41.7136 12.0481 41.7136 12.8903V22.6549H45.5983V13.6269C45.5983 12.5797 45.8417 11.7727 46.3253 11.209C46.8089 10.6454 47.4878 10.3603 48.3717 10.3603C49.1499 10.3603 49.7616 10.5685 50.1908 10.9944C50.6199 11.414 50.8345 12.0481 50.8345 12.8903V22.6549H54.7192V12.6085C54.7192 11.3755 54.4854 10.3539 54.0274 9.54368L54.0242 9.54689Z" fill="#00E7F9"/>
<path d="M73.8988 15.0232C73.8411 14.1969 73.7258 13.4956 73.5497 12.9127L70.1326 13.976C70.3471 14.5748 70.4464 15.2185 70.4176 15.9167C70.3888 16.6149 69.9884 17.3482 69.2134 18.1136C68.464 18.8694 67.5929 19.2762 66.6033 19.3338C65.6138 19.3915 64.7363 19.0648 63.9645 18.357L71.8299 10.4916L70.8948 9.55643C69.7899 8.45156 68.6049 7.69575 67.3303 7.30184C66.0621 6.90152 64.7971 6.85348 63.5417 7.16733C62.2863 7.48118 61.1302 8.16653 60.0702 9.22657C58.9941 10.3026 58.2735 11.4748 57.918 12.7494C57.5626 14.0176 57.5818 15.2954 57.9661 16.5796C58.3504 17.8638 59.1126 19.0744 60.2399 20.2081L60.5025 20.4707C61.6362 21.6044 62.85 22.3602 64.1406 22.7381C65.4376 23.116 66.7218 23.1224 67.9997 22.7605C69.2743 22.3954 70.4528 21.6749 71.5289 20.6052C72.5185 19.6156 73.175 18.6453 73.4984 17.6941C73.8251 16.7462 73.9564 15.8558 73.8988 15.0264V15.0232ZM61.2455 13.976C61.3031 13.1625 61.7035 12.3875 62.4432 11.6445C63.151 10.9367 63.9196 10.546 64.7395 10.482C65.5657 10.4179 66.3151 10.6677 66.9941 11.2314L61.9436 16.2882C61.4216 15.5612 61.1878 14.7894 61.2455 13.976Z" fill="#00E7F9"/>
<path d="M58.2391 33.4513C57.5409 32.2759 56.5897 31.3888 55.3728 30.7708C54.1622 30.1559 52.7979 29.8452 51.2735 29.8452C49.7491 29.8452 48.3912 30.1527 47.1743 30.7708C45.9637 31.3856 45.0125 32.2759 44.3144 33.4513C43.6098 34.6202 43.2607 36.0261 43.2607 37.6722V38.1654C43.2607 39.8051 43.6098 41.2111 44.3144 42.3864C45.0125 43.5553 45.9637 44.4488 47.1743 45.0669C48.388 45.6818 49.7555 45.9925 51.2735 45.9925C52.7915 45.9925 54.1622 45.685 55.3728 45.0669C56.5865 44.452 57.5409 43.5553 58.2391 42.3864C58.9372 41.2111 59.2863 39.8051 59.2863 38.1654V37.6722C59.2863 36.0261 58.9372 34.6202 58.2391 33.4513ZM58.2615 37.8484C53.9252 39.3119 52.7403 40.4969 51.2767 44.8331C49.8132 40.4969 48.6282 39.3119 44.292 37.8484C48.6282 36.3848 49.8132 35.1999 51.2767 30.8636C52.7403 35.1999 53.9252 36.3848 58.2615 37.8484Z" fill="#00E7F9"/>
<path d="M76.912 33.0959C76.4188 32.1415 75.7271 31.3921 74.8304 30.8477C73.9337 30.3 72.896 30.0278 71.7015 30.0278C70.3244 30.0278 69.2996 30.2712 68.6206 30.7548C67.9449 31.2384 67.4805 31.7476 67.2371 32.2792H66.6799V30.2808H62.8593V45.5634H66.7439V37.7972C66.7439 36.3785 67.0706 35.2736 67.7271 34.4826C68.3901 33.6915 69.3156 33.2976 70.5005 33.2976C71.5542 33.2976 72.3548 33.5891 72.9249 34.1623C73.4885 34.7388 73.7671 35.5971 73.7671 36.75V45.5634H77.6518V36.4425C77.6518 35.1679 77.4084 34.0534 76.912 33.0991V33.0959Z" fill="#00E7F9"/>
<path d="M81.8409 30.2769V45.5594H85.7256V30.2769H81.8409Z" fill="#00E7F9"/>
<path d="M100.88 35.9971C101.46 36.8138 101.751 37.6496 101.751 38.5047C101.751 39.3598 101.335 40.2021 100.505 41.0315C99.9545 41.5823 99.3364 41.9603 98.6542 42.1652C97.9753 42.367 97.2675 42.3574 96.5405 42.1396C95.8136 41.9218 95.109 41.4735 94.4268 40.7913L94.2091 40.5735C93.5269 39.8914 93.0754 39.1836 92.8576 38.4567C92.643 37.7329 92.6366 37.0251 92.8384 36.3494C93.0401 35.664 93.418 35.0459 93.9689 34.4951C94.5229 33.9411 95.0866 33.5824 95.663 33.4191C96.2331 33.2493 96.7967 33.2397 97.3476 33.387C97.9016 33.5311 98.4236 33.7906 98.9168 34.1685L101.005 30.9467C100.063 30.2934 99.0481 29.877 97.9561 29.7041C96.8704 29.5312 95.7719 29.6336 94.667 30.0083C93.5654 30.3862 92.4957 31.094 91.4645 32.1252C90.4205 33.1693 89.6935 34.3318 89.2772 35.6192C88.8608 36.9066 88.8224 38.2037 89.1587 39.5295C89.4885 40.8522 90.2443 42.1012 91.4197 43.2797L91.7239 43.5839C92.9024 44.7625 94.1482 45.5151 95.4773 45.8481C96.7967 46.1812 98.1002 46.1428 99.3876 45.7296C100.675 45.3165 101.838 44.5863 102.882 43.5423C103.926 42.4983 104.621 41.4414 104.995 40.3366C105.373 39.2349 105.476 38.1364 105.3 37.0475C105.13 35.9587 104.749 34.9339 104.169 33.9763L100.88 35.9971Z" fill="#00E7F9"/>
<path d="M86.6546 26.0407C84.8707 26.6427 84.3839 27.1295 83.7819 28.9133C83.1798 27.1295 82.693 26.6427 80.9092 26.0407C82.693 25.4386 83.1798 24.9518 83.7819 23.168C84.3839 24.9518 84.8707 25.4386 86.6546 26.0407Z" fill="#00E7F9"/>
<path d="M41.3094 29.8601C39.9739 29.8665 38.6385 29.8697 37.2998 29.8729C36.6625 29.8729 35.8554 29.8729 35.2181 29.8761C35.516 29.7512 36.1245 29.4469 36.6112 28.7904C37.2998 27.8649 37.2774 26.8689 37.2614 26.5742C37.2549 26.1995 37.2517 25.8216 37.2453 25.4469C37.2389 24.8225 37.2293 24.198 37.2229 23.5767H36.8098C36.0956 23.5767 35.4743 23.7336 34.9491 24.0538C34.6225 24.2556 34.4111 24.4638 34.363 24.5118C33.7546 25.1331 33.5944 25.9113 33.4952 26.3885C33.4567 26.5807 33.4343 26.744 33.4215 26.8529C33.3446 27.2116 33.1077 28.0602 32.3583 28.7872C31.2598 29.8537 29.8859 29.8601 29.5977 29.8569V33.0594H33.4183V41.6871C33.4183 41.7351 33.4183 41.7735 33.4247 41.8152C33.4471 42.8048 33.7546 43.5926 34.3534 44.1979C34.9811 44.8256 35.801 45.1394 36.8066 45.1394H41.1204V41.9305H38.1613C37.62 41.9305 37.335 41.6582 37.3062 41.1234C37.2998 41.0882 37.2998 41.053 37.2998 41.0145V33.0626H41.4855C41.4279 31.9962 41.3702 30.9265 41.3126 29.8601H41.3094Z" fill="white"/>
<path d="M6.72155 6.97449C7.77839 6.57417 8.19152 6.04575 8.36766 5.62622C8.60464 5.06257 8.51818 4.42846 9.00176 4.07298C9.21633 3.92246 9.45652 3.88083 9.61665 3.87442H12.2684V0.671875H8.26197C7.5478 0.671875 6.92651 0.8288 6.40129 1.14905C6.10025 1.3284 5.90169 1.52055 5.81523 1.60702C5.23236 2.19309 5.03701 2.86882 4.96014 3.2115C4.96014 3.4741 4.9089 4.81597 3.81043 5.88562C2.66072 7.00331 1.23558 6.96808 0.992188 6.95527V10.1578H4.87688V22.2378H8.76157V10.1578H12.768V6.95527C10.7568 6.96168 8.73915 6.96808 6.72795 6.97129L6.72155 6.97449Z" fill="white"/>
<path d="M28.658 15.7554C29.2345 15.7682 29.8142 15.7842 30.3938 15.8002C30.9767 15.8163 31.5564 15.8323 32.1328 15.8483C32.1873 15.6689 32.2545 15.3583 32.2097 14.9772C32.1392 14.3911 31.8446 14.01 31.7869 13.9396C31.3194 13.3535 30.6596 13.235 30.4899 13.2094L28.6645 13.0877C28.6645 12.8731 28.658 12.6617 28.658 12.4472V12.4055C28.658 11.8835 28.6068 9.63214 26.8966 8.02766C25.3722 6.59612 23.4539 6.52246 22.1248 6.52246C20.7958 6.52246 19.6941 6.72102 18.7814 7.12134C17.8687 7.52166 17.1353 8.04687 16.5941 8.69059C16.0464 9.3407 15.6525 10.0517 15.4091 10.8363L18.9799 12.034C19.1241 11.3359 19.4347 10.7658 19.9055 10.3239C20.3827 9.88193 21.0968 9.66096 22.0608 9.66096C23.0248 9.66096 23.771 9.89474 24.2161 10.3591C24.6709 10.8171 24.8951 11.4128 24.8951 12.1269V12.9916H20.7029C19.5532 12.9916 18.5348 13.171 17.6381 13.5264C16.7414 13.8883 16.0464 14.4231 15.5404 15.1309C15.0408 15.8387 14.791 16.7194 14.791 17.7634C14.791 18.8074 15.0408 19.6977 15.5404 20.4311C16.0464 21.1581 16.7254 21.7154 17.5932 22.0933C18.4547 22.4712 19.4315 22.6633 20.5172 22.6633C21.6028 22.6633 22.4291 22.5064 23.0472 22.1989C23.6621 21.8915 24.1168 21.536 24.4019 21.1421C24.6933 20.7418 24.8726 20.4151 24.9591 20.1717H25.542V20.2005C25.542 20.8154 25.7918 21.3118 26.2818 21.6769C26.775 22.0484 27.4026 22.2342 28.1649 22.2342H30.7525V19.0252H29.5195C29.2537 19.0252 29.0488 18.9612 28.9046 18.8267C28.5972 18.5416 28.6548 18.1349 28.6613 18.1061V15.7522L28.658 15.7554ZM24.8983 16.1974C24.8983 17.203 24.5556 18.01 23.8638 18.6153C23.1785 19.2206 22.2882 19.5216 21.2025 19.5216C20.3827 19.5216 19.755 19.3487 19.3258 18.9996C18.8903 18.6505 18.6757 18.199 18.6757 17.6449C18.6757 17.0909 18.8839 16.6553 19.2906 16.3479C19.7037 16.0404 20.2674 15.8899 20.9879 15.8899H24.9015V16.1974H24.8983Z" fill="white"/>
<path d="M55.0154 9.12941C54.5511 8.31596 53.933 7.71068 53.1676 7.31036C52.3958 6.91004 51.5407 6.70508 50.5927 6.70508C49.4238 6.70508 48.5175 6.92605 47.8834 7.3552C47.2429 7.78434 46.7497 8.33197 46.4006 8.98849H45.8497C45.5007 8.30955 44.9947 7.76192 44.3381 7.33918C43.6816 6.91965 42.8105 6.70508 41.7217 6.70508C40.7161 6.70508 39.9026 6.89723 39.2845 7.28154C38.6696 7.65944 38.2277 8.10779 37.9587 8.617H37.4078V6.95488H33.584V22.2374H37.4687V13.2095C37.4687 12.1622 37.7121 11.3552 38.1957 10.7915C38.6792 10.2279 39.3582 9.94285 40.2421 9.94285C41.0267 9.94285 41.632 10.151 42.0611 10.577C42.4903 10.9965 42.7048 11.6306 42.7048 12.4729V22.2374H46.5895V13.2095C46.5895 12.1622 46.8329 11.3552 47.3165 10.7915C47.8001 10.2279 48.479 9.94285 49.3629 9.94285C50.1412 9.94285 50.7528 10.151 51.182 10.577C51.6111 10.9965 51.8257 11.6306 51.8257 12.4729V22.2374H55.7104V12.191C55.7104 10.9581 55.4766 9.93645 55.0186 9.1262L55.0154 9.12941Z" fill="white"/>
<path d="M74.8909 14.6057C74.8333 13.7794 74.718 13.0781 74.5419 12.4952L71.1247 13.5585C71.3393 14.1573 71.4386 14.8011 71.4098 15.4992C71.3809 16.1974 70.9806 16.9308 70.2056 17.6962C69.4562 18.452 68.5851 18.8587 67.5955 18.9163C66.6059 18.974 65.7284 18.6473 64.9566 17.9396L72.8221 10.0741L71.8869 9.13895C70.7821 8.03408 69.5971 7.27827 68.3225 6.88436C67.0543 6.48404 65.7893 6.436 64.5339 6.74985C63.2785 7.0637 62.1224 7.74905 61.0623 8.80909C59.9863 9.88515 59.2657 11.0573 58.9102 12.3319C58.5547 13.6001 58.574 14.8779 58.9583 16.1621C59.3426 17.4464 60.1048 18.6569 61.2321 19.7906L61.4947 20.0532C62.6284 21.1869 63.8421 21.9427 65.1328 22.3206C66.4298 22.6985 67.714 22.7049 68.9918 22.3431C70.2665 21.978 71.445 21.2574 72.5211 20.1877C73.5106 19.1982 74.1672 18.2278 74.4906 17.2766C74.8173 16.3287 74.9486 15.4384 74.8909 14.6089V14.6057ZM62.2377 13.5585C62.2953 12.745 62.6956 11.97 63.4354 11.227C64.1432 10.5193 64.9118 10.1285 65.7316 10.0645C66.5579 10.0004 67.3073 10.2502 67.9862 10.8139L62.9358 15.8707C62.4138 15.1437 62.18 14.3719 62.2377 13.5585Z" fill="white"/>
<path d="M59.2312 33.0338C58.5331 31.8585 57.5819 30.9714 56.365 30.3533C55.1544 29.7384 53.7901 29.4277 52.2657 29.4277C50.7413 29.4277 49.3834 29.7352 48.1664 30.3533C46.9559 30.9682 46.0047 31.8585 45.3066 33.0338C44.602 34.2027 44.2529 35.6087 44.2529 37.2548V37.748C44.2529 39.3877 44.602 40.7936 45.3066 41.9689C46.0047 43.1378 46.9559 44.0314 48.1664 44.6494C49.3802 45.2643 50.7477 45.575 52.2657 45.575C53.7837 45.575 55.1544 45.2675 56.365 44.6494C57.5787 44.0346 58.5331 43.1378 59.2312 41.9689C59.9294 40.7936 60.2785 39.3877 60.2785 37.748V37.2548C60.2785 35.6087 59.9294 34.2027 59.2312 33.0338ZM59.2537 37.4309C54.9174 38.8945 53.7325 40.0794 52.2689 44.4157C50.8053 40.0794 49.6204 38.8945 45.2842 37.4309C49.6204 35.9673 50.8053 34.7824 52.2689 30.4461C53.7325 34.7824 54.9174 35.9673 59.2537 37.4309Z" fill="white"/>
<path d="M77.9042 32.6784C77.411 31.724 76.7193 30.9746 75.8226 30.4302C74.9259 29.8826 73.8882 29.6104 72.6937 29.6104C71.3166 29.6104 70.2918 29.8537 69.6128 30.3373C68.9371 30.8209 68.4727 31.3301 68.2293 31.8617H67.6721V29.8634H63.8514V45.1459H67.7361V37.3797C67.7361 35.961 68.0628 34.8561 68.7193 34.0651C69.3822 33.2741 70.3078 32.8802 71.4927 32.8802C72.5464 32.8802 73.347 33.1716 73.9171 33.7448C74.4807 34.3213 74.7593 35.1796 74.7593 36.3325V45.1459H78.644V36.0251C78.644 34.7504 78.4006 33.636 77.9042 32.6816V32.6784Z" fill="white"/>
<path d="M82.8331 29.8594V45.1419H86.7178V29.8594H82.8331Z" fill="white"/>
<path d="M101.872 35.5796C102.452 36.3963 102.743 37.2321 102.743 38.0872C102.743 38.9423 102.327 39.7846 101.497 40.614C100.947 41.1649 100.329 41.5428 99.6464 41.7477C98.9675 41.9495 98.2597 41.9399 97.5327 41.7221C96.8057 41.5043 96.1012 41.056 95.419 40.3738L95.2013 40.1561C94.5191 39.4739 94.0676 38.7662 93.8498 38.0392C93.6352 37.3154 93.6288 36.6076 93.8306 35.9319C94.0323 35.2466 94.4102 34.6285 94.9611 34.0776C95.5151 33.5236 96.0788 33.1649 96.6552 33.0016C97.2253 32.8318 97.7889 32.8222 98.3398 32.9695C98.8938 33.1137 99.4158 33.3731 99.909 33.751L101.997 30.5292C101.056 29.8759 100.04 29.4596 98.9483 29.2866C97.8626 29.1137 96.7641 29.2162 95.6592 29.5909C94.5576 29.9688 93.4879 30.6765 92.4567 31.7077C91.4126 32.7518 90.6857 33.9143 90.2693 35.2017C89.853 36.4891 89.8146 37.7862 90.1509 39.112C90.4807 40.4347 91.2365 41.6837 92.4118 42.8622L92.7161 43.1665C93.8946 44.345 95.1404 45.0976 96.4695 45.4307C97.7889 45.7637 99.0924 45.7253 100.38 45.3122C101.667 44.899 102.83 44.1689 103.874 43.1248C104.918 42.0808 105.613 41.024 105.987 39.9191C106.365 38.8174 106.468 37.7189 106.292 36.6301C106.122 35.5412 105.741 34.5164 105.161 33.5588L101.872 35.5796Z" fill="white"/>
<path d="M87.6467 25.6232C85.8629 26.2253 85.3761 26.712 84.7741 28.4959C84.172 26.712 83.6852 26.2253 81.9014 25.6232C83.6852 25.0211 84.172 24.5343 84.7741 22.7505C85.3761 24.5343 85.8629 25.0211 87.6467 25.6232Z" fill="white"/>
</svg>
